<svg id="Icon_awesome-calendar-alt" data-name="Icon awesome-calendar-alt" xmlns="http://www.w3.org/2000/svg" width="23.062" height="24.697" viewBox="0 0 23.062 24.697">
  <path id="Icon_awesome-calendar-alt-2" data-name="Icon awesome-calendar-alt" d="M0,22.381A2.4,2.4,0,0,0,2.471,24.7h18.12a2.4,2.4,0,0,0,2.471-2.315V9.261H0Zm16.473-9.454a.6.6,0,0,1,.618-.579H19.15a.6.6,0,0,1,.618.579v1.929a.6.6,0,0,1-.618.579H17.091a.6.6,0,0,1-.618-.579Zm0,6.174a.6.6,0,0,1,.618-.579H19.15a.6.6,0,0,1,.618.579v1.929a.6.6,0,0,1-.618.579H17.091a.6.6,0,0,1-.618-.579ZM9.884,12.927a.6.6,0,0,1,.618-.579h2.059a.6.6,0,0,1,.618.579v1.929a.6.6,0,0,1-.618.579H10.5a.6.6,0,0,1-.618-.579Zm0,6.174a.6.6,0,0,1,.618-.579h2.059a.6.6,0,0,1,.618.579v1.929a.6.6,0,0,1-.618.579H10.5a.6.6,0,0,1-.618-.579ZM3.295,12.927a.6.6,0,0,1,.618-.579H5.971a.6.6,0,0,1,.618.579v1.929a.6.6,0,0,1-.618.579H3.912a.6.6,0,0,1-.618-.579Zm0,6.174a.6.6,0,0,1,.618-.579H5.971a.6.6,0,0,1,.618.579v1.929a.6.6,0,0,1-.618.579H3.912a.6.6,0,0,1-.618-.579Zm17.3-16.014H18.12V.772A.8.8,0,0,0,17.3,0H15.649a.8.8,0,0,0-.824.772V3.087H8.236V.772A.8.8,0,0,0,7.413,0H5.766a.8.8,0,0,0-.824.772V3.087H2.471A2.4,2.4,0,0,0,0,5.4V7.718H23.062V5.4A2.4,2.4,0,0,0,20.591,3.087Z" fill="#002f87"/>
</svg>
