<?xml version="1.0" encoding="UTF-8" standalone="no"?>
<svg
   viewBox="0 0 30 30"
   version="1.1"
   id="svg10177"
   sodipodi:docname="calendar-day-solid.svg"
   inkscape:version="1.2.2 (732a01da63, 2022-12-09)"
   width="30"
   height="30"
   xmlns:inkscape="http://www.inkscape.org/namespaces/inkscape"
   xmlns:sodipodi="http://sodipodi.sourceforge.net/DTD/sodipodi-0.dtd"
   xmlns="http://www.w3.org/2000/svg"
   xmlns:svg="http://www.w3.org/2000/svg">
  <defs
     id="defs10181" />
  <sodipodi:namedview
     id="namedview10179"
     pagecolor="#ffffff"
     bordercolor="#000000"
     borderopacity="0.25"
     inkscape:showpageshadow="2"
     inkscape:pageopacity="0.0"
     inkscape:pagecheckerboard="0"
     inkscape:deskcolor="#d1d1d1"
     showgrid="false"
     inkscape:zoom="6.15625"
     inkscape:cx="59.614213"
     inkscape:cy="55.5533"
     inkscape:window-width="1920"
     inkscape:window-height="986"
     inkscape:window-x="-11"
     inkscape:window-y="-11"
     inkscape:window-maximized="1"
     inkscape:current-layer="svg10177" />
  <!--! Font Awesome Pro 6.4.0 by @fontawesome - https://fontawesome.com License - https://fontawesome.com/license (Commercial License) Copyright 2023 Fonticons, Inc. -->
  <path
     id="path10187"
     style="fill:#757575;fill-opacity:1;stroke-width:0.0504354"
     d="m 17.302031,17.577853 c -0.462493,0 -0.840896,0.348483 -0.840896,0.774407 v 4.646441 c 0,0.425924 0.378403,0.774407 0.840896,0.774407 h 5.045378 c 0.462493,0 0.840896,-0.348483 0.840896,-0.774407 V 18.35226 c 0,-0.425924 -0.378403,-0.774407 -0.840896,-0.774407 z M 9.2109676,3.1167512 c -1.117423,0 -2.020202,0.831396 -2.020202,1.860465 v 1.860465 h -1.388889 c -1.672978,0 -3.030303,1.250002 -3.030303,2.790698 v 2.7906978 12.906976 c 0,1.540696 1.357325,2.790698 3.030303,2.790698 H 24.741271 c 1.672978,0 3.030303,-1.250002 3.030303,-2.790698 V 11.95396 9.6283792 c 0,-1.540696 -1.357325,-2.790698 -3.030303,-2.790698 h -1.388889 v -1.860465 c 0,-1.029069 -0.902779,-1.860465 -2.020202,-1.860465 -1.117423,0 -2.020202,0.831396 -2.020202,1.860465 v 1.860465 H 11.23117 v -1.860465 c 0,-1.029069 -0.902779,-1.860465 -2.0202024,-1.860465 z M 5.5505846,13.051798 H 24.992563 v 12.45844 H 5.5505846 Z"
     sodipodi:nodetypes="ssssssssssscsscsssscsscsssccssccccc" />
</svg>
