<svg xmlns="http://www.w3.org/2000/svg" xmlns:xlink="http://www.w3.org/1999/xlink" width="102.288" height="102.288" viewBox="0 0 102.288 102.288">
  <defs>
    <linearGradient id="linear-gradient" x1="-0.12" y1="-0.622" x2="1" y2="1" gradientUnits="objectBoundingBox">
      <stop offset="0" stop-color="#589b31"/>
      <stop offset="1" stop-color="#93a5ff" stop-opacity="0"/>
    </linearGradient>
  </defs>
  <path id="Dotted_Square_1" data-name="Dotted Square 1" d="M99.424,100.856a1.432,1.432,0,1,1,1.432,1.432A1.432,1.432,0,0,1,99.424,100.856Zm-11.047,0a1.432,1.432,0,1,1,1.432,1.432A1.432,1.432,0,0,1,88.377,100.856Zm-11.047,0a1.432,1.432,0,1,1,1.432,1.432A1.432,1.432,0,0,1,77.33,100.856Zm-11.047,0a1.432,1.432,0,1,1,1.432,1.432A1.432,1.432,0,0,1,66.283,100.856Zm-11.047,0a1.432,1.432,0,1,1,1.432,1.432A1.432,1.432,0,0,1,55.236,100.856Zm-11.047,0a1.432,1.432,0,1,1,1.432,1.432A1.432,1.432,0,0,1,44.189,100.856Zm-11.047,0a1.432,1.432,0,1,1,1.432,1.432A1.432,1.432,0,0,1,33.141,100.856Zm-11.047,0a1.432,1.432,0,1,1,1.432,1.432A1.432,1.432,0,0,1,22.094,100.856Zm-11.047,0a1.432,1.432,0,1,1,1.432,1.432A1.432,1.432,0,0,1,11.047,100.856ZM0,100.856a1.432,1.432,0,1,1,1.432,1.432A1.432,1.432,0,0,1,0,100.856ZM99.424,89.809a1.432,1.432,0,1,1,1.432,1.432A1.432,1.432,0,0,1,99.424,89.809Zm-11.047,0a1.432,1.432,0,1,1,1.432,1.432A1.432,1.432,0,0,1,88.377,89.809Zm-11.047,0a1.432,1.432,0,1,1,1.432,1.432A1.432,1.432,0,0,1,77.33,89.809Zm-11.047,0a1.432,1.432,0,1,1,1.432,1.432A1.432,1.432,0,0,1,66.283,89.809Zm-11.047,0a1.432,1.432,0,1,1,1.432,1.432A1.432,1.432,0,0,1,55.236,89.809Zm-11.047,0a1.432,1.432,0,1,1,1.432,1.432A1.432,1.432,0,0,1,44.189,89.809Zm-11.047,0a1.432,1.432,0,1,1,1.432,1.432A1.432,1.432,0,0,1,33.141,89.809Zm-11.047,0a1.432,1.432,0,1,1,1.432,1.432A1.432,1.432,0,0,1,22.094,89.809Zm-11.047,0a1.432,1.432,0,1,1,1.432,1.432A1.432,1.432,0,0,1,11.047,89.809ZM0,89.809a1.432,1.432,0,1,1,1.432,1.432A1.432,1.432,0,0,1,0,89.809ZM99.424,78.762a1.432,1.432,0,1,1,1.432,1.432A1.432,1.432,0,0,1,99.424,78.762Zm-11.047,0a1.432,1.432,0,1,1,1.432,1.432A1.432,1.432,0,0,1,88.377,78.762Zm-11.047,0a1.432,1.432,0,1,1,1.432,1.432A1.432,1.432,0,0,1,77.33,78.762Zm-11.047,0a1.432,1.432,0,1,1,1.432,1.432A1.432,1.432,0,0,1,66.283,78.762Zm-11.047,0a1.432,1.432,0,1,1,1.432,1.432A1.432,1.432,0,0,1,55.236,78.762Zm-11.047,0a1.432,1.432,0,1,1,1.432,1.432A1.432,1.432,0,0,1,44.189,78.762Zm-11.047,0a1.432,1.432,0,1,1,1.432,1.432A1.432,1.432,0,0,1,33.141,78.762Zm-11.047,0a1.432,1.432,0,1,1,1.432,1.432A1.432,1.432,0,0,1,22.094,78.762Zm-11.047,0a1.432,1.432,0,1,1,1.432,1.432A1.432,1.432,0,0,1,11.047,78.762ZM0,78.762a1.432,1.432,0,1,1,1.432,1.432A1.432,1.432,0,0,1,0,78.762ZM99.424,67.715a1.432,1.432,0,1,1,1.432,1.432A1.432,1.432,0,0,1,99.424,67.715Zm-11.047,0a1.432,1.432,0,1,1,1.432,1.432A1.432,1.432,0,0,1,88.377,67.715Zm-11.047,0a1.432,1.432,0,1,1,1.432,1.432A1.432,1.432,0,0,1,77.33,67.715Zm-11.047,0a1.432,1.432,0,1,1,1.432,1.432A1.432,1.432,0,0,1,66.283,67.715Zm-11.047,0a1.432,1.432,0,1,1,1.432,1.432A1.432,1.432,0,0,1,55.236,67.715Zm-11.047,0a1.432,1.432,0,1,1,1.432,1.432A1.432,1.432,0,0,1,44.189,67.715Zm-11.047,0a1.432,1.432,0,1,1,1.432,1.432A1.432,1.432,0,0,1,33.141,67.715Zm-11.047,0a1.432,1.432,0,1,1,1.432,1.432A1.432,1.432,0,0,1,22.094,67.715Zm-11.047,0a1.432,1.432,0,1,1,1.432,1.432A1.432,1.432,0,0,1,11.047,67.715ZM0,67.715a1.432,1.432,0,1,1,1.432,1.432A1.432,1.432,0,0,1,0,67.715ZM99.424,56.668a1.432,1.432,0,1,1,1.432,1.432A1.432,1.432,0,0,1,99.424,56.668Zm-11.047,0A1.432,1.432,0,1,1,89.809,58.1,1.432,1.432,0,0,1,88.377,56.668Zm-11.047,0A1.432,1.432,0,1,1,78.762,58.1,1.432,1.432,0,0,1,77.33,56.668Zm-11.047,0A1.432,1.432,0,1,1,67.715,58.1,1.432,1.432,0,0,1,66.283,56.668Zm-11.047,0A1.432,1.432,0,1,1,56.668,58.1,1.432,1.432,0,0,1,55.236,56.668Zm-11.047,0A1.432,1.432,0,1,1,45.621,58.1,1.432,1.432,0,0,1,44.189,56.668Zm-11.047,0A1.432,1.432,0,1,1,34.574,58.1,1.432,1.432,0,0,1,33.141,56.668Zm-11.047,0A1.432,1.432,0,1,1,23.526,58.1,1.432,1.432,0,0,1,22.094,56.668Zm-11.047,0A1.432,1.432,0,1,1,12.479,58.1,1.432,1.432,0,0,1,11.047,56.668ZM0,56.668A1.432,1.432,0,1,1,1.432,58.1,1.432,1.432,0,0,1,0,56.668ZM99.424,45.621a1.432,1.432,0,1,1,1.432,1.432A1.432,1.432,0,0,1,99.424,45.621Zm-11.047,0a1.432,1.432,0,1,1,1.432,1.432A1.432,1.432,0,0,1,88.377,45.621Zm-11.047,0a1.432,1.432,0,1,1,1.432,1.432A1.432,1.432,0,0,1,77.33,45.621Zm-11.047,0a1.432,1.432,0,1,1,1.432,1.432A1.432,1.432,0,0,1,66.283,45.621Zm-11.047,0a1.432,1.432,0,1,1,1.432,1.432A1.432,1.432,0,0,1,55.236,45.621Zm-11.047,0a1.432,1.432,0,1,1,1.432,1.432A1.432,1.432,0,0,1,44.189,45.621Zm-11.047,0a1.432,1.432,0,1,1,1.432,1.432A1.432,1.432,0,0,1,33.141,45.621Zm-11.047,0a1.432,1.432,0,1,1,1.432,1.432A1.432,1.432,0,0,1,22.094,45.621Zm-11.047,0a1.432,1.432,0,1,1,1.432,1.432A1.432,1.432,0,0,1,11.047,45.621ZM0,45.621a1.432,1.432,0,1,1,1.432,1.432A1.432,1.432,0,0,1,0,45.621ZM99.424,34.573a1.432,1.432,0,1,1,1.432,1.432A1.432,1.432,0,0,1,99.424,34.573Zm-11.047,0a1.432,1.432,0,1,1,1.432,1.432A1.432,1.432,0,0,1,88.377,34.573Zm-11.047,0a1.432,1.432,0,1,1,1.432,1.432A1.432,1.432,0,0,1,77.33,34.573Zm-11.047,0a1.432,1.432,0,1,1,1.432,1.432A1.432,1.432,0,0,1,66.283,34.573Zm-11.047,0a1.432,1.432,0,1,1,1.432,1.432A1.432,1.432,0,0,1,55.236,34.573Zm-11.047,0a1.432,1.432,0,1,1,1.432,1.432A1.432,1.432,0,0,1,44.189,34.573Zm-11.047,0a1.432,1.432,0,1,1,1.432,1.432A1.432,1.432,0,0,1,33.141,34.573Zm-11.047,0a1.432,1.432,0,1,1,1.432,1.432A1.432,1.432,0,0,1,22.094,34.573Zm-11.047,0a1.432,1.432,0,1,1,1.432,1.432A1.432,1.432,0,0,1,11.047,34.573ZM0,34.573a1.432,1.432,0,1,1,1.432,1.432A1.432,1.432,0,0,1,0,34.573ZM99.424,23.526a1.432,1.432,0,1,1,1.432,1.432A1.432,1.432,0,0,1,99.424,23.526Zm-11.047,0a1.432,1.432,0,1,1,1.432,1.432A1.432,1.432,0,0,1,88.377,23.526Zm-11.047,0a1.432,1.432,0,1,1,1.432,1.432A1.432,1.432,0,0,1,77.33,23.526Zm-11.047,0a1.432,1.432,0,1,1,1.432,1.432A1.432,1.432,0,0,1,66.283,23.526Zm-11.047,0a1.432,1.432,0,1,1,1.432,1.432A1.432,1.432,0,0,1,55.236,23.526Zm-11.047,0a1.432,1.432,0,1,1,1.432,1.432A1.432,1.432,0,0,1,44.189,23.526Zm-11.047,0a1.432,1.432,0,1,1,1.432,1.432A1.432,1.432,0,0,1,33.141,23.526Zm-11.047,0a1.432,1.432,0,1,1,1.432,1.432A1.432,1.432,0,0,1,22.094,23.526Zm-11.047,0a1.432,1.432,0,1,1,1.432,1.432A1.432,1.432,0,0,1,11.047,23.526ZM0,23.526a1.432,1.432,0,1,1,1.432,1.432A1.432,1.432,0,0,1,0,23.526ZM99.424,12.479a1.432,1.432,0,1,1,1.432,1.432A1.432,1.432,0,0,1,99.424,12.479Zm-11.047,0a1.432,1.432,0,1,1,1.432,1.432A1.432,1.432,0,0,1,88.377,12.479Zm-11.047,0a1.432,1.432,0,1,1,1.432,1.432A1.432,1.432,0,0,1,77.33,12.479Zm-11.047,0a1.432,1.432,0,1,1,1.432,1.432A1.432,1.432,0,0,1,66.283,12.479Zm-11.047,0a1.432,1.432,0,1,1,1.432,1.432A1.432,1.432,0,0,1,55.236,12.479Zm-11.047,0a1.432,1.432,0,1,1,1.432,1.432A1.432,1.432,0,0,1,44.189,12.479Zm-11.047,0a1.432,1.432,0,1,1,1.432,1.432A1.432,1.432,0,0,1,33.141,12.479Zm-11.047,0a1.432,1.432,0,1,1,1.432,1.432A1.432,1.432,0,0,1,22.094,12.479Zm-11.047,0a1.432,1.432,0,1,1,1.432,1.432A1.432,1.432,0,0,1,11.047,12.479ZM0,12.479a1.432,1.432,0,1,1,1.432,1.432A1.432,1.432,0,0,1,0,12.479ZM99.424,1.432a1.432,1.432,0,1,1,1.432,1.432A1.432,1.432,0,0,1,99.424,1.432Zm-11.047,0a1.432,1.432,0,1,1,1.432,1.432A1.432,1.432,0,0,1,88.377,1.432Zm-11.047,0a1.432,1.432,0,1,1,1.432,1.432A1.432,1.432,0,0,1,77.33,1.432Zm-11.047,0a1.432,1.432,0,1,1,1.432,1.432A1.432,1.432,0,0,1,66.283,1.432Zm-11.047,0a1.432,1.432,0,1,1,1.432,1.432A1.432,1.432,0,0,1,55.236,1.432Zm-11.047,0a1.432,1.432,0,1,1,1.432,1.432A1.432,1.432,0,0,1,44.189,1.432Zm-11.047,0a1.432,1.432,0,1,1,1.432,1.432A1.432,1.432,0,0,1,33.141,1.432Zm-11.047,0a1.432,1.432,0,1,1,1.432,1.432A1.432,1.432,0,0,1,22.094,1.432Zm-11.047,0a1.432,1.432,0,1,1,1.432,1.432A1.432,1.432,0,0,1,11.047,1.432ZM0,1.432A1.432,1.432,0,1,1,1.432,2.864,1.432,1.432,0,0,1,0,1.432Z" transform="translate(0 102.288) rotate(-90)" fill="url(#linear-gradient)"/>
</svg>
