<?xml version="1.0" encoding="UTF-8" standalone="no"?><!DOCTYPE svg PUBLIC "-//W3C//DTD SVG 1.1//EN" "http://www.w3.org/Graphics/SVG/1.1/DTD/svg11.dtd"><svg width="100%" height="100%" viewBox="0 0 20 20" version="1.1" xmlns="http://www.w3.org/2000/svg" xmlns:xlink="http://www.w3.org/1999/xlink" xml:space="preserve" xmlns:serif="http://www.serif.com/" style="fill-rule:evenodd;clip-rule:evenodd;stroke-linejoin:round;stroke-miterlimit:2;"><path id="_Color-2_" serif:id="_Color-2" d="M15.558,16.698l-3.83,-3.819l-0,-0.603l-0.207,-0.214c-0.904,0.776 -2.057,1.202 -3.248,1.202c-2.736,0 -4.987,-2.251 -4.987,-4.986c0,-2.736 2.251,-4.987 4.987,-4.987c2.735,0 4.986,2.251 4.986,4.987c0,1.191 -0.426,2.344 -1.202,3.248l0.214,0.207l0.603,-0l3.823,3.826l-1.139,1.139Zm-7.281,-11.867c-1.891,-0 -3.447,1.556 -3.447,3.447c-0,1.892 1.556,3.448 3.447,3.448c1.892,0 3.448,-1.556 3.448,-3.448c-0.002,-1.89 -1.557,-3.445 -3.448,-3.447Z" style="fill:#fff;fill-rule:nonzero;"/></svg>